# xmcd CD database file
#
# Track frame offsets:
#	150
#	22044
#	53539
#	80346
#	107597
#	128501
#
# Disc length: 2034 seconds
#
# Revision: 0
# Processed by: cddbd v1.5.2PL0 Copyright (c) Steve Scherf et al.
# Submitted via: CDex 1.70beta2
#
DISCID=3c07f006
DTITLE=Diabloson - Salsa Caribeña
DYEAR=2005
DGENRE=Salsa
TTITLE0=Linda Caribeña
TTITLE1=Descarga
TTITLE2=Gracias A La Vida
TTITLE3=Cuidate
TTITLE4=Yo Te Digo
TTITLE5=Mujer De Mi Vida
EXTD=YEAR: 2005
EXTT0=
EXTT1=
EXTT2=
EXTT3=
EXTT4=
EXTT5=
PLAYORDER=
